<mxfile host="app.diagrams.net" modified="2024-06-27T15:31:55.952Z" agent="Mozilla/5.0 (Windows NT 10.0; Win64; x64) AppleWebKit/537.36 (KHTML, like Gecko) Chrome/126.0.0.0 Safari/537.36" version="24.2.5" etag="AGNaxVpPn3ZROBJV07C6" type="github">
  <diagram name="페이지-1" id="j70RWR6_8sLIxQQnJjHV">
    <mxGraphModel>
      <root>
        <mxCell id="0" />
        <mxCell id="1" parent="0" />
      </root>
    </mxGraphModel>
  </diagram>
</mxfile>
